<?xml version="1.0" encoding="UTF-8"?>
<svg id="Layer_2" data-name="Layer 2" xmlns="http://www.w3.org/2000/svg" viewBox="0 0 614.69 647.29">
  <defs>
    <style>
      .cls-1 {
        fill: none;
        stroke: #EC5800;
        stroke-miterlimit: 10;
        stroke-width: 20px;
      }

      .cls-2 {
        fill: #EC5800;
      }
    </style>
  </defs>
  <path class="cls-1" d="M267.68,636.29L66.68,14.29l201,622Z"/>
  <line class="cls-1" x1="467.68" y1="271.29" x2="66.68" y2="14.29"/>
  <line class="cls-1" x1="93.68" y1="378.29" x2="66.68" y2="14.29"/>
  <path class="cls-1" d="M346.68,637.29l-79-1,79,1Z"/>
  <path class="cls-1" d="M552.61,9.54l-205.93,627.75L552.61,9.54Z"/>
  <line class="cls-1" x1="93.68" y1="378.29" x2="146.68" y2="269.29"/>
  <path class="cls-1" d="M9.68,556.29l84-178L9.68,556.29Z"/>
  <path class="cls-1" d="M261.68,619.29l-252-63,252,63Z"/>
  <path class="cls-1" d="M146.68,269.29L552.61,9.54,146.68,269.29Z"/>
  <path class="cls-1" d="M604.96,554.29l-137.28-283,137.28,283Z"/>
  <path class="cls-1" d="M352.68,619.29l252.28-65-252.28,65Z"/>
  <path class="cls-1" d="M552.61,9.54l-30.93,369.75,30.93-369.75Z"/>
  <path class="cls-2" d="M562.62,11.06c-.31-5.62-4.13-10.21-9.81-10.97-5.37-.72-10.89,3.05-12.07,8.39-.84,3.82,1.15,8.29,5.24,9.23,3.79.86,8.32-1.14,9.23-5.24.22-.98-.31.54-.38.72.38-.87-.3.43-.48.61-.16.16-1.46.94-.58.51-.97.48-1.85.71-2.94.53-1.73-.29.76.4-.8-.23-.39-.1-.72-.29-1-.58-.49-.42-.59-.49-.32-.23.27.28.19.17-.22-.32-.29-.28-.48-.61-.57-1.01-.22-.62-.28-.74-.16-.37.16.58.12.23-.13-1.05.21,3.91,3.3,7.69,7.5,7.5,3.88-.17,7.73-3.3,7.5-7.5h0Z"/>
  <path class="cls-2" d="M342.92,647c2.05.29,3.94.49,5.95-.2,1.86-.64,3.6-1.61,4.97-3.05s2.3-3.02,2.92-4.89c.67-2,.54-4.05.14-6.08-.34-1.76-1.94-3.6-3.45-4.48-1.61-.94-3.98-1.34-5.78-.76s-3.57,1.71-4.48,3.45c-.98,1.86-1.16,3.71-.76,5.78l.05.27-.27-1.99c.04.36.04.7,0,1.06l.27-1.99c-.07.36-.16.68-.3,1.02l.76-1.79c-.16.33-.33.63-.54.93l1.17-1.52c-.29.36-.6.67-.96.95l1.52-1.17c-.3.21-.6.38-.93.53l1.79-.76c-.34.13-.66.22-1.02.28l1.99-.27c-.27.02-.52.03-.8.01l1.99.27-.27-.04c-2.08-.3-3.89-.35-5.78.76-1.56.91-3.04,2.69-3.45,4.48-.44,1.92-.34,4.07.76,5.78.98,1.52,2.6,3.18,4.48,3.45h0Z"/>
  <path class="cls-2" d="M269.2,631.35c-.3.02-.59.02-.9,0l1.99.27c-.38-.06-.73-.15-1.08-.29l1.79.76c-.35-.16-.66-.34-.97-.57l1.52,1.17c-.23-.19-.44-.4-.64-.63l1.17,1.52c-.14-.18-.26-.36-.38-.56-.96-1.63-2.66-2.94-4.48-3.45s-4.19-.27-5.78.76-3.01,2.57-3.45,4.48-.29,4.01.76,5.78c2.07,3.52,6.25,6.11,10.43,5.77,2.02-.16,3.83-.73,5.3-2.2,1.3-1.3,2.28-3.44,2.2-5.3s-.72-3.95-2.2-5.3-3.34-2.35-5.3-2.2h0Z"/>
  <path class="cls-2" d="M66.09,4.99c-4.63.84-9,5.07-8.86,10l1.02-3.79-.07.15,1.17-1.52-.12.11,3.31-1.93-.15.03,5.78.76-.14-.07,2.69,2.69-.09-.14.76,1.79-.03-.17v3.99l.04-.16-1.93,3.31.12-.11-3.31,1.93.15-.04h-3.99l.15.04-3.31-1.93.11.11c1.36,1.36,3.38,2.2,5.3,2.2s4.04-.82,5.3-2.2,2.29-3.31,2.2-5.3-.76-3.87-2.2-5.3c-2.47-2.46-6.46-3.07-9.51-1.29-3.38,1.98-4.69,6.25-3.19,9.81s5.38,5.55,9.16,4.53c3.34-.9,5.87-4.19,5.77-7.68l-.27,1.99c.03-.15.07-.3.13-.44l-.76,1.79c.12-.28.27-.53.46-.77l-1.17,1.52c.15-.17.3-.31.47-.46l-1.52,1.17c.3-.22.61-.39.95-.54l-1.79.76c.44-.17.89-.3,1.35-.38,1.75-.32,3.61-1.96,4.48-3.45.94-1.61,1.34-3.98.76-5.78s-1.71-3.57-3.45-4.48c-1.87-.99-3.7-1.13-5.78-.76h0Z"/>
  <path class="cls-2" d="M.33,552.95c-.63,2.65-.4,5.43.96,7.82.73,1.29,1.84,2.22,2.73,3.36l-1.17-1.52.13.2c1.08,1.63,2.56,2.92,4.48,3.45,1.8.49,4.19.27,5.78-.76s3.01-2.57,3.45-4.48.36-4.1-.76-5.78c-.79-1.2-1.71-2.06-2.59-3.14l1.17,1.52c-.15-.22-.27-.42-.38-.66l.76,1.79c-.09-.26-.15-.49-.19-.76l.27,1.99c-.02-.18-.02-.35,0-.53l-.27,1.99c.02-.18.05-.35.1-.52.46-1.93.26-4.04-.76-5.78-.91-1.56-2.69-3.04-4.48-3.45-1.92-.44-4.07-.34-5.78.76-1.61,1.04-2.99,2.57-3.45,4.48H.33Z"/>
  <path class="cls-2" d="M600.41,556.71c.06.11.11.22.16.33l-.76-1.79c.06.18.1.34.13.53l-.27-1.99c.02.25.02.48,0,.73l.27-1.99c-.04.25-.11.48-.2.71l.76-1.79c-.11.23-.22.43-.37.63l1.17-1.52c-.12.14-.24.27-.38.39l1.52-1.17c-.2.15-.4.27-.63.37-1.61.7-3,2.87-3.45,4.48-.49,1.8-.27,4.19.76,5.78s2.57,3.01,4.48,3.45l1.99.27c1.35,0,2.62-.35,3.79-1.02,2.4-1.05,4.14-3.62,4.9-6.05.83-2.67.38-5.47-.91-7.91-.86-1.62-2.74-2.97-4.48-3.45s-4.19-.27-5.78.76-3.01,2.57-3.45,4.48c-.46,2.02-.22,3.93.76,5.78h0Z"/>
</svg>